<svg viewBox="0 0 24 24" fill="white" xmlns="http://www.w3.org/2000/svg">
    <path d="M17.05 12.536c-.032-3.048 2.48-4.493 2.595-4.562-1.422-2.078-3.628-2.364-4.4-2.387-1.856-.192-3.652 1.1-4.585 1.1-.962 0-2.418-1.078-3.989-1.046-2.024.032-3.912 1.19-4.954 2.991-2.141 3.708-.544 9.151 1.5 12.147 1.034 1.464 2.232 3.106 3.815 3.046 1.545-.062 2.125-.972 3.989-.972 1.839 0 2.373.972 3.975.934 1.652-.026 2.7-1.466 3.696-2.942 1.192-1.682 1.674-3.342 1.698-3.428-.038-.013-3.232-1.227-3.265-4.897l-.075-.034zM14.115 6.022C14.94 4.998 15.486 3.62 15.33 2.22c-1.3.058-2.92.9-3.857 1.966-.828.97-1.572 2.577-1.384 4.075 1.466.108 2.964-.717 4.025-2.239h.001z" />
</svg>
